<?xml version="1.0" encoding="UTF-8" standalone="no"?>
<!-- Generator: Adobe Illustrator 19.0.0, SVG Export Plug-In . SVG Version: 6.00 Build 0)  -->

<svg
   xmlns:dc="http://purl.org/dc/elements/1.1/"
   xmlns:cc="http://creativecommons.org/ns#"
   xmlns:rdf="http://www.w3.org/1999/02/22-rdf-syntax-ns#"
   xmlns:svg="http://www.w3.org/2000/svg"
   xmlns="http://www.w3.org/2000/svg"
   xmlns:sodipodi="http://sodipodi.sourceforge.net/DTD/sodipodi-0.dtd"
   xmlns:inkscape="http://www.inkscape.org/namespaces/inkscape"
   version="1.1"
   id="Layer_1"
   x="0px"
   y="0px"
   viewBox="0 0 512 512"
   style="enable-background:new 0 0 512 512;"
   xml:space="preserve"
   inkscape:version="0.48.4 r9939"
   width="100%"
   height="100%"
   sodipodi:docname="alice.svg"
   inkscape:export-filename="/home/atila/NodeProjects/remote-pad/static/img/alice.png"
   inkscape:export-xdpi="22.5"
   inkscape:export-ydpi="22.5"><metadata
     id="metadata59"><rdf:RDF><cc:Work
         rdf:about=""><dc:format>image/svg+xml</dc:format><dc:type
           rdf:resource="http://purl.org/dc/dcmitype/StillImage" /><dc:title></dc:title></cc:Work></rdf:RDF></metadata><defs
     id="defs57" /><sodipodi:namedview
     pagecolor="#ffffff"
     bordercolor="#666666"
     borderopacity="1"
     objecttolerance="10"
     gridtolerance="10"
     guidetolerance="10"
     inkscape:pageopacity="0"
     inkscape:pageshadow="2"
     inkscape:window-width="1366"
     inkscape:window-height="740"
     id="namedview55"
     showgrid="false"
     inkscape:zoom="0.5390625"
     inkscape:cx="256"
     inkscape:cy="256"
     inkscape:window-x="0"
     inkscape:window-y="0"
     inkscape:window-maximized="1"
     inkscape:current-layer="Layer_1" /><g
     id="g3"><g
       id="g5"><g
         id="g7"><path
           d="M144.045,183.897h15.688c0-30.138,9.2-59.004,26.605-83.477l-12.786-9.092     C154.248,118.471,144.045,150.483,144.045,183.897z"
           id="path9" /><path
           d="M208.065,327.943c0,26.388,21.468,47.856,47.856,47.856c26.389,0,47.857-21.468,47.857-47.856v-7.844h-95.714V327.943z      M287.122,335.787c-3.51,13.959-16.168,24.324-31.202,24.324c-15.034,0-27.691-10.365-31.201-24.324H287.122z"
           id="path11" /><polygon
           points="291.536,216.225 296.092,211.67 296.092,239.916 311.781,239.916 311.781,195.98 325.488,182.272      314.394,171.181 280.443,205.133    "
           id="polygon13" /><rect
           x="176.053"
           y="495.989"
           width="15.688"
           height="16.006"
           id="rect15" /><rect
           x="320.103"
           y="495.989"
           width="15.688"
           height="16.006"
           id="rect17" /><rect
           x="247.916"
           y="488.145"
           width="16.005"
           height="15.688"
           id="rect19" /><rect
           x="368.109"
           y="231.914"
           width="15.688"
           height="16.005"
           id="rect21" /><path
           d="M359.953,152.046h-0.158v-8.319v-9.851V87.869c0-33.1-8.611-56.215-26.325-70.666     C320.491,6.614,303.28,1.144,279.769,0.175V0h-7.843h-0.001h-7.843v0.195C179.548,4.298,112.035,74.357,112.035,159.89v143.886     h7.844c11.015,0,21.773-1.119,32.168-3.251v11.412c0,49.072,34.206,90.3,80.026,101.106v11.086h-24.166     c-48.45,0-87.869,39.417-87.869,87.87l15.688-0.001c0-8.474,1.48-16.606,4.174-24.165h19.991v-15.688h-12.127     c12.942-19.465,35.064-32.326,60.141-32.326h24.166v16.163c0,13.15,10.698,23.849,23.849,23.849     c13.151,0,23.849-10.698,23.849-23.849v-16.163h24.165c25.078,0,47.199,12.861,60.141,32.326H351.95v15.688h19.991     c2.694,7.561,4.174,15.692,4.174,24.165h15.688c0-48.451-39.417-87.869-87.869-87.869h-24.165v-11.086     c45.819-10.806,80.025-52.035,80.025-101.106v-32.488l8.319,0.321v24.165h15.688V279.77h8.161v-15.688h-8.161v-8.161h-15.688     v8.161l-8.319-0.132v-48.199h0.158c2.821,0,5.555-0.372,8.161-1.065v9.225h15.688v-18.934c4.974-5.621,8.002-13.002,8.002-21.08     c0-2.821-0.372-5.555-1.065-8.161h9.225v-15.688h-18.932C375.411,155.074,368.03,152.046,359.953,152.046z M279.77,15.858     c19.618,0.885,33.653,5.237,43.783,13.5c13.831,11.283,20.553,30.422,20.553,58.51v39.749     c-36.123-3.922-64.335-34.607-64.335-71.757V15.858z M127.723,287.878V159.89c0-76.883,60.476-139.907,136.359-143.992v39.96     v88.027C264.082,220.769,203.606,283.793,127.723,287.878z M255.921,464.143h-0.001c-4.499,0-8.16-3.661-8.16-8.161v-40.17     h16.321v40.17h0.001C264.082,460.482,260.421,464.143,255.921,464.143z M344.109,311.937h-0.002     c0,48.625-39.559,88.185-88.186,88.185c-48.625,0-88.185-39.559-88.185-88.185v-15.479c24.501-7.701,46.474-21.157,64.337-38.771     v30.085h31.851v-15.688h-16.163v-32.168h-0.122c20.163-26.758,32.133-60.022,32.133-96.03v-38.004     c14.477,20.826,37.713,35.109,64.336,37.477V311.937z M373.977,191.9h-5.863v5.927c-2.398,1.411-5.182,2.235-8.161,2.235h-0.158     v-32.327h0.158c8.912,0,16.163,7.251,16.163,16.163C376.116,186.809,375.33,189.538,373.977,191.9z"
           id="path23" /></g></g></g><g
     id="g25" /><g
     id="g27" /><g
     id="g29" /><g
     id="g31" /><g
     id="g33" /><g
     id="g35" /><g
     id="g37" /><g
     id="g39" /><g
     id="g41" /><g
     id="g43" /><g
     id="g45" /><g
     id="g47" /><g
     id="g49" /><g
     id="g51" /><g
     id="g53" /></svg>