<?xml version="1.0" encoding="UTF-8" standalone="no"?>
<!-- Generator: Adobe Illustrator 19.0.0, SVG Export Plug-In . SVG Version: 6.00 Build 0)  -->

<svg
   xmlns:dc="http://purl.org/dc/elements/1.1/"
   xmlns:cc="http://creativecommons.org/ns#"
   xmlns:rdf="http://www.w3.org/1999/02/22-rdf-syntax-ns#"
   xmlns:svg="http://www.w3.org/2000/svg"
   xmlns="http://www.w3.org/2000/svg"
   xmlns:sodipodi="http://sodipodi.sourceforge.net/DTD/sodipodi-0.dtd"
   xmlns:inkscape="http://www.inkscape.org/namespaces/inkscape"
   version="1.1"
   id="Layer_1"
   x="0px"
   y="0px"
   viewBox="0 0 512.001 512.001"
   style="enable-background:new 0 0 512.001 512.001;"
   xml:space="preserve"
   inkscape:version="0.48.4 r9939"
   width="100%"
   height="100%"
   sodipodi:docname="bob.svg"
   inkscape:export-filename="/home/atila/NodeProjects/remote-pad/static/img/bob.png"
   inkscape:export-xdpi="22.5"
   inkscape:export-ydpi="22.5"><metadata
     id="metadata83"><rdf:RDF><cc:Work
         rdf:about=""><dc:format>image/svg+xml</dc:format><dc:type
           rdf:resource="http://purl.org/dc/dcmitype/StillImage" /><dc:title></dc:title></cc:Work></rdf:RDF></metadata><defs
     id="defs81" /><sodipodi:namedview
     pagecolor="#ffffff"
     bordercolor="#666666"
     borderopacity="1"
     objecttolerance="10"
     gridtolerance="10"
     guidetolerance="10"
     inkscape:pageopacity="0"
     inkscape:pageshadow="2"
     inkscape:window-width="1366"
     inkscape:window-height="740"
     id="namedview79"
     showgrid="false"
     inkscape:zoom="0.53906145"
     inkscape:cx="256.0005"
     inkscape:cy="256.0005"
     inkscape:window-x="0"
     inkscape:window-y="0"
     inkscape:window-maximized="1"
     inkscape:current-layer="Layer_1" /><g
     id="g3"><g
       id="g5"><g
         id="g7"><path
           d="M255.651,295.747c13.14,0,23.83-10.69,23.83-23.83h-15.649c0,4.511-3.67,8.181-8.181,8.181     c-4.511,0-8.181-3.67-8.181-8.181h-15.649C231.82,285.057,242.51,295.747,255.651,295.747z"
           id="path9" /><polygon
           points="384.394,455.802 392.128,455.802 392.128,512 407.776,512 407.776,440.153 384.394,440.153    "
           id="polygon11" /><polygon
           points="104.923,512 120.571,512 120.571,455.802 128.305,455.802 128.305,440.153 104.923,440.153    "
           id="polygon13" /><path
           d="M196.736,419.466c-5.939-4.695-11.326-10.09-16.013-16.039l-12.291,9.683c5.443,6.909,11.701,13.177,18.6,18.631     L196.736,419.466z"
           id="path15" /><path
           d="M163.685,369.927l-15.07,4.217c2.369,8.469,5.753,16.661,10.056,24.351l13.656-7.642     C168.629,384.243,165.722,377.204,163.685,369.927z"
           id="path17" /><path
           d="M349.027,369.874c-2.032,7.278-4.936,14.32-8.631,20.932l13.66,7.633c4.299-7.694,7.678-15.888,10.043-24.359     L349.027,369.874z"
           id="path19" /><path
           d="M332.005,403.389c-4.683,5.952-10.068,11.35-16.005,16.047l9.71,12.273c6.896-5.456,13.151-11.729,18.591-18.642     L332.005,403.389z"
           id="path21" /><path
           d="M243.223,455.039c4.326,0.506,8.742,0.763,13.126,0.763c4.404,0,8.842-0.26,13.191-0.77l-1.827-15.541     c-7.47,0.878-15.202,0.88-22.672,0.006L243.223,455.039z"
           id="path23" /><rect
           x="176.499"
           y="180.576"
           transform="matrix(0.7071 0.7071 -0.7071 0.7071 189.6766 -74.1319)"
           width="15.648"
           height="22.635"
           id="rect25" /><rect
           x="196.51"
           y="183.608"
           transform="matrix(-0.7071 -0.7071 0.7071 -0.7071 198.9844 506.2224)"
           width="15.648"
           height="56.585"
           id="rect27" /><rect
           x="288.538"
           y="180.571"
           transform="matrix(0.7071 0.7071 -0.7071 0.7071 222.4879 -153.3566)"
           width="15.648"
           height="22.635"
           id="rect29" /><rect
           x="308.54"
           y="183.605"
           transform="matrix(-0.7071 -0.7071 0.7071 -0.7071 390.2351 585.435)"
           width="15.648"
           height="56.585"
           id="rect31" /><path
           d="M256.35,320.112c-13.14,0-23.83,10.69-23.83,23.83c0,13.14,10.69,23.83,23.83,23.83c13.14,0,23.83-10.69,23.83-23.83     C280.179,330.802,269.489,320.112,256.35,320.112z M256.35,352.123c-4.511,0-8.181-3.67-8.181-8.181     c0-4.511,3.67-8.181,8.181-8.181c4.511,0,8.181,3.67,8.181,8.181C264.531,348.453,260.86,352.123,256.35,352.123z"
           id="path33" /><path
           d="M471.18,391.513c-23.903-31.596-57.214-55.72-94.461-68.571c4.847-13.451,7.496-27.934,7.496-43.022v-48.208     c2.897-0.047,5.698-0.49,8.36-1.264v9.459h15.649v-16.005h-3.668c6.715-5.838,10.972-14.432,10.972-24.009     c0-17.318-13.904-31.437-31.133-31.812v-0.021h-0.178V93.807c19.893-22.218,32.012-51.537,32.012-83.636V0H256.35     c-70.505,0-127.866,57.36-127.866,127.866v0.839v6.986v32.368h-0.877c-17.552,0-31.832,14.28-31.832,31.832     c0,9.574,4.254,18.168,10.965,24.009h-2.264v16.005h15.648v-9.078c2.402,0.581,4.905,0.896,7.482,0.896h0.877v48.195     c0,14.843,2.486,29.292,7.253,42.864c-37.432,12.812-70.919,37.006-94.919,68.733C14.401,426.436,0.439,468.099,0.439,512h15.648     c0-40.466,12.866-78.863,37.209-111.043c22.352-29.548,53.623-52,88.545-63.712c1.13,2.27,2.35,4.496,3.616,6.698h-0.968     c0,4.295,0.246,8.625,0.733,12.87l8.027-0.919c3.72,5.06,7.818,9.887,12.314,14.42c4.172,4.205,8.591,8.074,13.218,11.609     l29.098,48.497l-6.242,11.112c5.658,3.179,11.593,5.855,17.709,7.998l37.005,61.674l37.004-61.673     c6.134-2.151,12.085-4.837,17.759-8.028l-6.262-11.134l29.771-49.619c9.222-7.162,17.44-15.545,24.406-24.904l8.449,0.969     c0.486-4.241,0.733-8.572,0.733-12.871h-1.326c1.261-2.159,2.474-4.35,3.609-6.586c34.786,11.743,65.927,34.146,88.208,63.598     c24.344,32.181,37.212,70.58,37.212,111.047h15.648C511.56,468.098,497.598,426.433,471.18,391.513z M128.483,216.076h-0.877     c-8.924,0-16.184-7.26-16.184-16.185c0-8.925,7.26-16.184,16.184-16.184h0.877V216.076z M399.879,199.891     c0,8.749-6.982,15.88-15.664,16.158v-32.315C392.896,184.012,399.879,191.143,399.879,199.891z M144.131,135.69h0.001h146.575     c29.389,0,56.447-10.156,77.86-27.139v59.507h-17.117c-10.08-9.89-23.876-16.005-39.081-16.005     c-15.204,0-29.001,6.115-39.081,16.005h-33.878c-10.08-9.89-23.877-16.005-39.081-16.005s-29.001,6.115-39.081,16.005h-17.117     V135.69z M344.444,183.706v0.001c5.091,6.735,8.116,15.113,8.116,24.187c0,22.163-18.03,40.193-40.192,40.193     c-22.161,0-40.193-18.03-40.193-40.193c0-9.074,3.025-17.452,8.116-24.187h0.065v-0.082c7.346-9.668,18.961-15.924,32.012-15.924     c13.051,0,24.664,6.256,32.011,15.923v0.082H344.444z M232.405,183.707c5.091,6.735,8.116,15.113,8.116,24.187     c0,22.163-18.03,40.193-40.193,40.193s-40.193-18.03-40.193-40.193c0-9.074,3.025-17.452,8.116-24.187h0.065v-0.082     c7.346-9.668,18.96-15.924,32.012-15.924c13.051,0,24.664,6.256,32.012,15.924v0.082H232.405z M282.97,436.42     c-0.145,0.042-0.288,0.088-0.433,0.129l0.114,0.403l-26.301,43.836l-26.261-43.769l0.128-0.455     c-0.163-0.046-0.324-0.098-0.487-0.145l-23.004-38.341c15.281,6.368,31.836,9.707,48.926,9.707     c18.015,0,35.165-3.721,50.743-10.404L282.97,436.42z M368.567,279.919c-1.102,60.667-47.083,109.022-104.393,111.899v-7.863     h-15.649v7.952c-27.225-1.701-52.52-13.125-71.853-32.616c-20.984-21.154-32.541-49.342-32.541-79.372v-96.212h5.871     c-3.533,7.322-5.515,15.527-5.515,24.187c0,30.791,25.05,55.841,55.841,55.841s55.841-25.05,55.841-55.841     c0-8.66-1.981-16.865-5.515-24.187h11.387c-3.533,7.322-5.515,15.527-5.515,24.187c0,30.791,25.05,55.841,55.841,55.841     s55.84-25.05,55.84-55.841c0-8.66-1.981-16.865-5.515-24.187h5.871V279.919z M290.707,120.042H144.401     c4.029-58.243,52.7-104.393,111.949-104.393h144.094C397.577,73.696,349.453,120.042,290.707,120.042z"
           id="path35" /><rect
           x="136.486"
           y="479.992"
           width="15.649"
           height="16.005"
           id="rect37" /><rect
           x="160.491"
           y="479.992"
           width="15.649"
           height="16.005"
           id="rect39" /><rect
           x="184.506"
           y="479.992"
           width="15.648"
           height="16.005"
           id="rect41" /><rect
           x="312.553"
           y="479.992"
           width="15.648"
           height="16.005"
           id="rect43" /><rect
           x="336.558"
           y="479.992"
           width="15.648"
           height="16.005"
           id="rect45" /><rect
           x="360.562"
           y="479.992"
           width="15.649"
           height="16.005"
           id="rect47" /></g></g></g><g
     id="g49" /><g
     id="g51" /><g
     id="g53" /><g
     id="g55" /><g
     id="g57" /><g
     id="g59" /><g
     id="g61" /><g
     id="g63" /><g
     id="g65" /><g
     id="g67" /><g
     id="g69" /><g
     id="g71" /><g
     id="g73" /><g
     id="g75" /><g
     id="g77" /></svg>