<?xml version="1.0" encoding="UTF-8" standalone="no"?>
<!-- Generator: Adobe Illustrator 19.0.0, SVG Export Plug-In . SVG Version: 6.00 Build 0)  -->

<svg
   xmlns:dc="http://purl.org/dc/elements/1.1/"
   xmlns:cc="http://creativecommons.org/ns#"
   xmlns:rdf="http://www.w3.org/1999/02/22-rdf-syntax-ns#"
   xmlns:svg="http://www.w3.org/2000/svg"
   xmlns="http://www.w3.org/2000/svg"
   xmlns:sodipodi="http://sodipodi.sourceforge.net/DTD/sodipodi-0.dtd"
   xmlns:inkscape="http://www.inkscape.org/namespaces/inkscape"
   version="1.1"
   id="Layer_1"
   x="0px"
   y="0px"
   viewBox="0 0 512.002 512.002"
   style="enable-background:new 0 0 512.002 512.002;"
   xml:space="preserve"
   inkscape:version="0.48.4 r9939"
   width="100%"
   height="100%"
   sodipodi:docname="carol.svg"
   inkscape:export-filename="/home/atila/NodeProjects/remote-pad/static/img/carol.png"
   inkscape:export-xdpi="22.5"
   inkscape:export-ydpi="22.5"><metadata
     id="metadata63"><rdf:RDF><cc:Work
         rdf:about=""><dc:format>image/svg+xml</dc:format><dc:type
           rdf:resource="http://purl.org/dc/dcmitype/StillImage" /><dc:title></dc:title></cc:Work></rdf:RDF></metadata><defs
     id="defs61" /><sodipodi:namedview
     pagecolor="#ffffff"
     bordercolor="#666666"
     borderopacity="1"
     objecttolerance="10"
     gridtolerance="10"
     guidetolerance="10"
     inkscape:pageopacity="0"
     inkscape:pageshadow="2"
     inkscape:window-width="1366"
     inkscape:window-height="740"
     id="namedview59"
     showgrid="false"
     inkscape:zoom="0.53906039"
     inkscape:cx="256.001"
     inkscape:cy="256.001"
     inkscape:window-x="0"
     inkscape:window-y="0"
     inkscape:window-maximized="1"
     inkscape:current-layer="Layer_1" /><g
     id="g3"><g
       id="g5"><g
         id="g7"><polygon
           points="272.008,272.08 255.844,272.08 255.844,223.908 240.155,223.908 240.155,287.769 272.008,287.769    "
           id="polygon9" /><rect
           x="200.143"
           y="183.899"
           width="15.689"
           height="32.01"
           id="rect11" /><rect
           x="167.988"
           y="488.145"
           transform="matrix(-8.599384e-004 -1 1 -8.599384e-004 -311.8388 680.4089)"
           width="32.01"
           height="15.689"
           id="rect13" /><rect
           x="312.007"
           y="488.141"
           transform="matrix(-8.904461e-004 -1 1 -8.904461e-004 -167.6813 824.4387)"
           width="32.01"
           height="15.689"
           id="rect15" /><rect
           x="183.984"
           y="136.036"
           width="40.008"
           height="15.689"
           id="rect17" /><polygon
           points="328.023,176.051 288.011,176.051 288.011,191.74 296.171,191.74 296.171,215.906 311.86,215.906 311.86,191.74      328.023,191.74    "
           id="polygon19" /><path
           d="M455.903,351.946c0-21.981-12.725-41.563-32.279-50.631c0.179-1.805,0.27-3.603,0.27-5.385     c0-30.8-25.058-55.859-55.858-55.859c-2.748,0-5.47,0.21-8.161,0.605v-24.927h0.157c17.563,0,31.851-14.289,31.851-31.851     s-14.289-31.851-31.851-31.851h-0.157v-48.172C359.876,46.597,313.279,0,256.002,0S152.129,46.597,152.129,103.873v48.172h-0.158     c-17.563,0-31.851,14.289-31.851,31.851s14.289,31.851,31.851,31.851h0.158v24.927c-2.69-0.394-5.415-0.605-8.164-0.605     c-30.8,0-55.858,25.059-55.858,55.859c0,1.781,0.091,3.58,0.27,5.385c-19.554,9.068-32.279,28.652-32.279,50.631     s12.725,41.562,32.279,50.631c-0.179,1.805-0.27,3.602-0.27,5.385c0,27.755,20.351,50.837,46.913,55.133     c-9.404,13.987-14.901,30.812-14.901,48.897h15.689c0-39.799,32.38-72.179,72.179-72.179h24.166v16.162     c0,13.151,10.699,23.85,23.85,23.85c13.151,0,23.85-10.699,23.85-23.85v-16.162h24.165c39.799,0,72.179,32.379,72.179,72.179     h15.689c0-18.086-5.497-34.91-14.901-48.898c26.561-4.295,46.911-27.378,46.911-55.132c0-1.782-0.091-3.58-0.27-5.385     C443.178,393.508,455.903,373.925,455.903,351.946z M359.875,167.734h0.157c8.913,0,16.162,7.251,16.162,16.162     s-7.251,16.162-16.162,16.162h-0.157V167.734z M256.002,15.689c48.625,0,88.184,39.559,88.184,88.184v1.255     c-10.166-10.532-24.41-17.102-40.17-17.102h-96.029c-15.758,0-30.004,6.57-40.169,17.102v-1.255h-0.001     C167.818,55.249,207.377,15.689,256.002,15.689z M151.971,200.059c-8.913,0-16.162-7.251-16.162-16.162     s7.251-16.162,16.162-16.162h0.158v32.324H151.971z M232.154,424.125h-0.001h-24.165c-23.311,0-44.515,9.142-60.259,24.007     h-3.762c-22.149,0-40.169-18.021-40.169-40.169c0-2.842,0.326-5.763,0.97-8.683l1.53-6.947l-6.765-2.201     c-16.594-5.397-27.744-20.743-27.744-38.187c0-17.444,11.15-32.789,27.744-38.186l6.766-2.201l-1.531-6.948     c-0.643-2.92-0.97-5.842-0.97-8.684c0-22.15,18.021-40.17,40.169-40.17c2.764,0,5.493,0.283,8.164,0.835v55.34     c0,49.072,34.205,90.3,80.024,101.106V424.125z M264.163,455.976c0,4.5-3.661,8.161-8.161,8.161c-4.5,0-8.161-3.661-8.161-8.161     v-40.169h16.321V455.976z M256.002,400.118c-48.624,0-88.184-39.559-88.184-88.184v-168.05c0-22.149,18.021-40.169,40.169-40.169     h96.029c22.15,0,40.17,18.021,40.17,40.169v168.05C344.185,360.559,304.627,400.118,256.002,400.118z M412.47,390.132     l-6.765,2.201l1.53,6.947c0.643,2.92,0.97,5.842,0.97,8.683c0,22.149-18.021,40.169-40.169,40.169h-3.761     c-15.745-14.865-36.947-24.007-60.258-24.007h-24.165v-11.085c45.819-10.806,80.024-52.034,80.024-101.106v-55.341     c2.669-0.55,5.397-0.834,8.161-0.834c22.149,0,40.169,18.021,40.169,40.17c0,2.842-0.326,5.763-0.97,8.683l-1.531,6.948     l6.766,2.201c16.594,5.396,27.744,20.741,27.744,38.186C440.214,369.389,429.064,384.735,412.47,390.132z"
           id="path21" /><rect
           x="231.993"
           y="344.097"
           width="48.013"
           height="15.689"
           id="rect23" /><path
           d="M254.71,488.143c-13.151,0-23.85,10.699-23.85,23.85h15.689c0-4.5,3.661-8.161,8.161-8.161c4.5,0,8.16,3.661,8.16,8.161     h15.689C278.558,498.842,267.86,488.143,254.71,488.143z"
           id="path25" /><path
           d="M293.388,60.247l13.042-8.721c-5.858-8.76-13.268-16.177-22.022-22.043l-8.734,13.034     C282.716,47.234,288.676,53.2,293.388,60.247z"
           id="path27" /></g></g></g><g
     id="g29" /><g
     id="g31" /><g
     id="g33" /><g
     id="g35" /><g
     id="g37" /><g
     id="g39" /><g
     id="g41" /><g
     id="g43" /><g
     id="g45" /><g
     id="g47" /><g
     id="g49" /><g
     id="g51" /><g
     id="g53" /><g
     id="g55" /><g
     id="g57" /></svg>