<?xml version="1.0" encoding="UTF-8" standalone="no"?>
<!-- Generator: Adobe Illustrator 19.0.0, SVG Export Plug-In . SVG Version: 6.00 Build 0)  -->

<svg
   xmlns:dc="http://purl.org/dc/elements/1.1/"
   xmlns:cc="http://creativecommons.org/ns#"
   xmlns:rdf="http://www.w3.org/1999/02/22-rdf-syntax-ns#"
   xmlns:svg="http://www.w3.org/2000/svg"
   xmlns="http://www.w3.org/2000/svg"
   xmlns:sodipodi="http://sodipodi.sourceforge.net/DTD/sodipodi-0.dtd"
   xmlns:inkscape="http://www.inkscape.org/namespaces/inkscape"
   version="1.1"
   id="Layer_1"
   x="0px"
   y="0px"
   viewBox="0 0 512 512"
   style="enable-background:new 0 0 512 512;"
   xml:space="preserve"
   inkscape:version="0.48.4 r9939"
   width="100%"
   height="100%"
   sodipodi:docname="david.svg"
   inkscape:export-filename="/home/atila/NodeProjects/remote-pad/static/img/david.png"
   inkscape:export-xdpi="22.5"
   inkscape:export-ydpi="22.5"><metadata
     id="metadata55"><rdf:RDF><cc:Work
         rdf:about=""><dc:format>image/svg+xml</dc:format><dc:type
           rdf:resource="http://purl.org/dc/dcmitype/StillImage" /><dc:title></dc:title></cc:Work></rdf:RDF></metadata><defs
     id="defs53" /><sodipodi:namedview
     pagecolor="#ffffff"
     bordercolor="#666666"
     borderopacity="1"
     objecttolerance="10"
     gridtolerance="10"
     guidetolerance="10"
     inkscape:pageopacity="0"
     inkscape:pageshadow="2"
     inkscape:window-width="1366"
     inkscape:window-height="740"
     id="namedview51"
     showgrid="false"
     inkscape:zoom="0.5390625"
     inkscape:cx="256"
     inkscape:cy="256"
     inkscape:window-x="0"
     inkscape:window-y="0"
     inkscape:window-maximized="1"
     inkscape:current-layer="Layer_1" /><g
     id="g3"><g
       id="g5"><g
         id="g7"><polygon
           points="255.852,223.914 240.143,223.914 240.143,287.784 272.005,287.784 272.005,272.074 255.852,272.074    "
           id="polygon9" /><path
           d="M239.849,351.949h-15.71c0,13.157,10.703,23.859,23.86,23.859v-15.71C243.504,360.098,239.849,356.442,239.849,351.949z"
           id="path11" /><polygon
           points="183.981,191.759 200.131,191.759 200.131,215.912 215.841,215.912 215.841,191.759 223.991,191.759      223.991,176.049 183.981,176.049    "
           id="polygon13" /><polygon
           points="328.019,176.049 288.008,176.049 288.008,191.759 296.159,191.759 296.159,215.912 311.869,215.912      311.869,191.759 328.019,191.759    "
           id="polygon15" /><path
           d="M359.881,311.938v-96.173h0.148c17.568,0,31.861-14.292,31.861-31.861c0-17.569-14.292-31.862-31.861-31.862h-0.148     v-0.949c22.669-3.76,40.011-23.493,40.011-47.21c0-24.62-18.686-44.959-42.618-47.581c-6.552-19.038-24.681-32.294-45.259-32.294     c-2.076,0-4.16,0.16-6.329,0.495C297.313,9.425,281.592,0,264.002,0c-16.515,0-31.721,8.693-40.364,22.392     c-7.201-4.161-15.337-6.388-23.653-6.388c-23.913,0-43.785,17.625-47.311,40.566c-22.942,3.524-40.566,23.398-40.566,47.311     c0,23.718,17.343,43.45,40.011,47.21v0.949h-0.147c-17.568,0-31.861,14.293-31.861,31.862s14.293,31.861,31.861,31.861h0.147     v96.173c0,49.073,34.203,90.301,80.022,101.111v11.066h-24.154c-48.456,0-87.877,39.421-87.877,87.876h15.71     c0-39.792,32.374-72.166,72.167-72.166h24.154v16.151c0,13.157,10.703,23.86,23.86,23.86c4.929,0,9.513-1.503,13.32-4.073     c6.353-4.292,10.539-11.56,10.539-19.788v-16.151h24.154c39.793,0,72.167,32.374,72.167,72.166h15.71     c0-48.456-39.422-87.876-87.877-87.876H279.86v-11.066C325.678,402.24,359.881,361.01,359.881,311.938z M152.119,200.055h-0.147     c-8.906,0-16.151-7.246-16.151-16.151c0-8.907,7.246-16.152,16.151-16.152h0.147V200.055z M360.029,167.752     c8.906,0,16.151,7.246,16.151,16.152c0,8.906-7.246,16.151-16.151,16.151h-0.148v-32.303H360.029z M127.818,103.882     c0-17.732,14.425-32.156,32.156-32.156h7.855v-7.855c0-17.732,14.425-32.156,32.156-32.156c7.778,0,15.353,2.946,21.332,8.298     l8.629,7.722l3.985-10.872c4.637-12.653,16.721-21.153,30.07-21.153c13.339,0,25.082,8.098,29.918,20.631l2.571,6.666l6.88-1.931     c3.303-0.928,6.051-1.359,8.644-1.359c15.256,0,28.509,10.843,31.512,25.782l1.297,6.454l6.581-0.149     c0.399-0.009,0.747-0.043,1.018-0.076c17.549,0.213,31.76,14.555,31.76,32.154c0,17.732-14.424,32.156-32.156,32.156     c-11.288,0-21.554-5.871-27.463-15.707l-8.817-14.677l-5.376,16.256c-4.377,13.236-16.58,22.129-30.365,22.129     c-7.778,0-15.354-2.946-21.332-8.298l-8.629-7.722l-3.985,10.872c-4.637,12.652-16.721,21.152-30.07,21.152     c-14.135,0-26.427-9.184-30.589-22.852l-2.719-8.93l-8.334,4.205c-4.697,2.37-9.534,3.571-14.375,3.571     C142.243,136.038,127.818,121.613,127.818,103.882z M256,464.127c-4.494,0-8.149-3.655-8.149-8.149v-40.159h16.299v40.159h0     C264.149,460.471,260.494,464.127,256,464.127z M256,400.11c-48.617,0-88.171-39.553-88.171-88.171V151.056     c1.921-0.336,3.83-0.79,5.722-1.374c8.052,15.879,24.215,26.073,42.439,26.073c16.515,0,31.721-8.693,40.365-22.392     c7.199,4.161,15.337,6.388,23.653,6.388c16.061,0,30.672-8.056,39.407-20.954c6.845,6.481,15.417,10.751,24.758,12.297v160.846     C344.171,360.556,304.618,400.11,256,400.11z"
           id="path17" /><polygon
           points="320.137,479.991 320.149,494.196 256,479.94 191.848,494.196 191.836,479.976 176.126,479.991 176.153,512      191.863,511.985 191.862,510.287 256,496.032 320.163,510.292 320.164,512 335.874,511.985 335.847,479.976    "
           id="polygon19" /></g></g></g><g
     id="g21" /><g
     id="g23" /><g
     id="g25" /><g
     id="g27" /><g
     id="g29" /><g
     id="g31" /><g
     id="g33" /><g
     id="g35" /><g
     id="g37" /><g
     id="g39" /><g
     id="g41" /><g
     id="g43" /><g
     id="g45" /><g
     id="g47" /><g
     id="g49" /></svg>